<mxfile host="65bd71144e" modified="2020-10-31T09:10:21.404Z" agent="5.0 (Windows NT 10.0; Win64; x64) AppleWebKit/537.36 (KHTML, like Gecko) Code/1.50.1 Chrome/83.0.4103.122 Electron/9.2.1 Safari/537.36" etag="PxgUIGuwIIWNwfXKs33g" version="13.6.5" pages="8">
    <diagram id="Z8t6eByg_bAuf-g6iZLm" name="docker_execute_command">
        <mxGraphModel dx="820" dy="792" grid="1" gridSize="10" guides="1" tooltips="1" connect="1" arrows="1" fold="1" page="1" pageScale="1" pageWidth="827" pageHeight="1169" math="0" shadow="0">
            <root>
                <mxCell id="0"/>
                <mxCell id="1" parent="0"/>
                <mxCell id="x4BcTHykn0_MHG1Q5Rc5-2" value="docker" style="rounded=1;whiteSpace=wrap;html=1;arcSize=17;" parent="1" vertex="1">
                    <mxGeometry x="160" y="250" width="60" height="20" as="geometry"/>
                </mxCell>
                <mxCell id="x4BcTHykn0_MHG1Q5Rc5-3" value="exec" style="rounded=1;whiteSpace=wrap;html=1;arcSize=17;" parent="1" vertex="1">
                    <mxGeometry x="230" y="250" width="60" height="20" as="geometry"/>
                </mxCell>
                <mxCell id="x4BcTHykn0_MHG1Q5Rc5-4" value="-it" style="rounded=1;whiteSpace=wrap;html=1;arcSize=17;" parent="1" vertex="1">
                    <mxGeometry x="300" y="250" width="40" height="20" as="geometry"/>
                </mxCell>
                <mxCell id="x4BcTHykn0_MHG1Q5Rc5-5" value="&amp;lt;containerID&amp;gt;" style="rounded=1;whiteSpace=wrap;html=1;arcSize=17;" parent="1" vertex="1">
                    <mxGeometry x="350" y="250" width="80" height="20" as="geometry"/>
                </mxCell>
                <mxCell id="x4BcTHykn0_MHG1Q5Rc5-8" value="&amp;lt;command&amp;gt;" style="rounded=1;whiteSpace=wrap;html=1;arcSize=17;" parent="1" vertex="1">
                    <mxGeometry x="440" y="250" width="80" height="20" as="geometry"/>
                </mxCell>
                <mxCell id="x4BcTHykn0_MHG1Q5Rc5-9" value="" style="verticalLabelPosition=bottom;shadow=0;dashed=0;align=center;html=1;verticalAlign=top;strokeWidth=1;shape=mxgraph.mockup.markup.curlyBrace;" parent="1" vertex="1">
                    <mxGeometry x="160" y="230" width="60" height="20" as="geometry"/>
                </mxCell>
                <mxCell id="x4BcTHykn0_MHG1Q5Rc5-10" value="docker client call" style="text;html=1;strokeColor=none;fillColor=none;align=center;verticalAlign=middle;whiteSpace=wrap;rounded=0;" parent="1" vertex="1">
                    <mxGeometry x="151.25" y="200" width="77.5" height="30" as="geometry"/>
                </mxCell>
                <mxCell id="x4BcTHykn0_MHG1Q5Rc5-13" value="" style="verticalLabelPosition=bottom;shadow=0;dashed=0;align=center;html=1;verticalAlign=top;strokeWidth=1;shape=mxgraph.mockup.markup.curlyBrace;rotation=-180;" parent="1" vertex="1">
                    <mxGeometry x="228.75" y="270" width="60" height="20" as="geometry"/>
                </mxCell>
                <mxCell id="x4BcTHykn0_MHG1Q5Rc5-14" value="Run another command" style="text;html=1;strokeColor=none;fillColor=none;align=center;verticalAlign=middle;whiteSpace=wrap;rounded=0;" parent="1" vertex="1">
                    <mxGeometry x="222.5" y="290" width="77.5" height="30" as="geometry"/>
                </mxCell>
                <mxCell id="x4BcTHykn0_MHG1Q5Rc5-15" value="Input mode" style="text;html=1;strokeColor=none;fillColor=none;align=center;verticalAlign=middle;whiteSpace=wrap;rounded=0;" parent="1" vertex="1">
                    <mxGeometry x="281.25" y="200" width="77.5" height="30" as="geometry"/>
                </mxCell>
                <mxCell id="x4BcTHykn0_MHG1Q5Rc5-16" value="" style="verticalLabelPosition=bottom;shadow=0;dashed=0;align=center;html=1;verticalAlign=top;strokeWidth=1;shape=mxgraph.mockup.markup.curlyBrace;" parent="1" vertex="1">
                    <mxGeometry x="300" y="230" width="40" height="20" as="geometry"/>
                </mxCell>
                <mxCell id="x4BcTHykn0_MHG1Q5Rc5-18" value="" style="verticalLabelPosition=bottom;shadow=0;dashed=0;align=center;html=1;verticalAlign=top;strokeWidth=1;shape=mxgraph.mockup.markup.curlyBrace;rotation=-180;" parent="1" vertex="1">
                    <mxGeometry x="348.75" y="272" width="82.5" height="20" as="geometry"/>
                </mxCell>
                <mxCell id="x4BcTHykn0_MHG1Q5Rc5-19" value="ID of the conatiner" style="text;html=1;strokeColor=none;fillColor=none;align=center;verticalAlign=middle;whiteSpace=wrap;rounded=0;" parent="1" vertex="1">
                    <mxGeometry x="351.25" y="290" width="77.5" height="30" as="geometry"/>
                </mxCell>
                <mxCell id="x4BcTHykn0_MHG1Q5Rc5-20" value="" style="verticalLabelPosition=bottom;shadow=0;dashed=0;align=center;html=1;verticalAlign=top;strokeWidth=1;shape=mxgraph.mockup.markup.curlyBrace;" parent="1" vertex="1">
                    <mxGeometry x="440" y="228" width="80" height="20" as="geometry"/>
                </mxCell>
                <mxCell id="x4BcTHykn0_MHG1Q5Rc5-21" value="New command which should be executed" style="text;html=1;strokeColor=none;fillColor=none;align=center;verticalAlign=middle;whiteSpace=wrap;rounded=0;" parent="1" vertex="1">
                    <mxGeometry x="415" y="200" width="130" height="30" as="geometry"/>
                </mxCell>
            </root>
        </mxGraphModel>
    </diagram>
    <diagram id="4DqkIe9O288BrXbF6ims" name="docker_volumes">
        <mxGraphModel dx="785" dy="470" grid="1" gridSize="10" guides="1" tooltips="1" connect="1" arrows="1" fold="1" page="1" pageScale="1" pageWidth="827" pageHeight="1169" math="0" shadow="0">
            <root>
                <mxCell id="LirIfCl32TO5lYSVs2zt-0"/>
                <mxCell id="LirIfCl32TO5lYSVs2zt-1" parent="LirIfCl32TO5lYSVs2zt-0"/>
                <mxCell id="LirIfCl32TO5lYSVs2zt-2" value="" style="rounded=0;whiteSpace=wrap;html=1;strokeColor=#000000;" vertex="1" parent="LirIfCl32TO5lYSVs2zt-1">
                    <mxGeometry x="90" y="60" width="190" height="110" as="geometry"/>
                </mxCell>
                <mxCell id="LirIfCl32TO5lYSVs2zt-3" value="Local Directory" style="text;html=1;strokeColor=none;fillColor=none;align=center;verticalAlign=middle;whiteSpace=wrap;rounded=0;fontSize=18;fontStyle=1" vertex="1" parent="LirIfCl32TO5lYSVs2zt-1">
                    <mxGeometry x="90" y="30" width="140" height="30" as="geometry"/>
                </mxCell>
                <mxCell id="LirIfCl32TO5lYSVs2zt-4" value="Docker Container" style="text;html=1;strokeColor=none;fillColor=none;align=center;verticalAlign=middle;whiteSpace=wrap;rounded=0;fontSize=18;fontStyle=1" vertex="1" parent="LirIfCl32TO5lYSVs2zt-1">
                    <mxGeometry x="330" y="30" width="160" height="30" as="geometry"/>
                </mxCell>
                <mxCell id="LirIfCl32TO5lYSVs2zt-6" value="frontend" style="rounded=0;whiteSpace=wrap;html=1;strokeColor=#000000;fontSize=18;align=left;" vertex="1" parent="LirIfCl32TO5lYSVs2zt-1">
                    <mxGeometry x="100" y="70" width="145" height="30" as="geometry"/>
                </mxCell>
                <mxCell id="LirIfCl32TO5lYSVs2zt-7" value="/src" style="rounded=0;whiteSpace=wrap;html=1;strokeColor=#000000;fontSize=18;align=left;" vertex="1" parent="LirIfCl32TO5lYSVs2zt-1">
                    <mxGeometry x="125" y="100" width="120" height="30" as="geometry"/>
                </mxCell>
                <mxCell id="LirIfCl32TO5lYSVs2zt-15" value="/public" style="rounded=0;whiteSpace=wrap;html=1;strokeColor=#000000;fontSize=18;align=left;" vertex="1" parent="LirIfCl32TO5lYSVs2zt-1">
                    <mxGeometry x="125" y="130" width="120" height="30" as="geometry"/>
                </mxCell>
                <mxCell id="LirIfCl32TO5lYSVs2zt-16" value="" style="rounded=0;whiteSpace=wrap;html=1;strokeColor=#000000;" vertex="1" parent="LirIfCl32TO5lYSVs2zt-1">
                    <mxGeometry x="330" y="60" width="190" height="150" as="geometry"/>
                </mxCell>
                <mxCell id="LirIfCl32TO5lYSVs2zt-17" value="/app" style="rounded=0;whiteSpace=wrap;html=1;strokeColor=#000000;fontSize=18;align=left;" vertex="1" parent="LirIfCl32TO5lYSVs2zt-1">
                    <mxGeometry x="341" y="70" width="159" height="30" as="geometry"/>
                </mxCell>
                <mxCell id="LirIfCl32TO5lYSVs2zt-20" style="edgeStyle=orthogonalEdgeStyle;rounded=0;orthogonalLoop=1;jettySize=auto;html=1;exitX=0;exitY=0.5;exitDx=0;exitDy=0;fontSize=18;" edge="1" parent="LirIfCl32TO5lYSVs2zt-1" source="LirIfCl32TO5lYSVs2zt-18" target="LirIfCl32TO5lYSVs2zt-7">
                    <mxGeometry relative="1" as="geometry">
                        <Array as="points">
                            <mxPoint x="245" y="115"/>
                        </Array>
                    </mxGeometry>
                </mxCell>
                <mxCell id="LirIfCl32TO5lYSVs2zt-22" value="mapping" style="edgeLabel;html=1;align=center;verticalAlign=middle;resizable=0;points=[];fontSize=18;" vertex="1" connectable="0" parent="LirIfCl32TO5lYSVs2zt-20">
                    <mxGeometry x="-0.114" y="1" relative="1" as="geometry">
                        <mxPoint as="offset"/>
                    </mxGeometry>
                </mxCell>
                <mxCell id="LirIfCl32TO5lYSVs2zt-18" value="reference" style="rounded=0;whiteSpace=wrap;html=1;strokeColor=#d79b00;fontSize=18;align=left;fillColor=#ffe6cc;" vertex="1" parent="LirIfCl32TO5lYSVs2zt-1">
                    <mxGeometry x="366" y="100" width="134" height="30" as="geometry"/>
                </mxCell>
                <mxCell id="LirIfCl32TO5lYSVs2zt-26" style="edgeStyle=orthogonalEdgeStyle;rounded=0;orthogonalLoop=1;jettySize=auto;html=1;fontSize=18;align=right;" edge="1" parent="LirIfCl32TO5lYSVs2zt-1" source="LirIfCl32TO5lYSVs2zt-19" target="LirIfCl32TO5lYSVs2zt-15">
                    <mxGeometry relative="1" as="geometry"/>
                </mxCell>
                <mxCell id="LirIfCl32TO5lYSVs2zt-27" value="mapping" style="edgeLabel;html=1;align=center;verticalAlign=middle;resizable=0;points=[];fontSize=18;" vertex="1" connectable="0" parent="LirIfCl32TO5lYSVs2zt-26">
                    <mxGeometry x="0.0678" y="2" relative="1" as="geometry">
                        <mxPoint as="offset"/>
                    </mxGeometry>
                </mxCell>
                <mxCell id="LirIfCl32TO5lYSVs2zt-19" value="reference" style="rounded=0;whiteSpace=wrap;html=1;strokeColor=#d79b00;fontSize=18;align=left;fillColor=#ffe6cc;" vertex="1" parent="LirIfCl32TO5lYSVs2zt-1">
                    <mxGeometry x="366" y="130" width="134" height="30" as="geometry"/>
                </mxCell>
                <mxCell id="M2R_YAmJUU3BRE1aYa_X-0" value="/node_modules" style="rounded=0;whiteSpace=wrap;html=1;fontSize=18;align=left;strokeColor=#82b366;fillColor=#d5e8d4;" vertex="1" parent="LirIfCl32TO5lYSVs2zt-1">
                    <mxGeometry x="366" y="160" width="134" height="30" as="geometry"/>
                </mxCell>
                <mxCell id="M2R_YAmJUU3BRE1aYa_X-1" value="bind" style="rounded=0;whiteSpace=wrap;html=1;strokeColor=#d79b00;fontSize=21;align=left;fillColor=#ffe6cc;" vertex="1" parent="LirIfCl32TO5lYSVs2zt-1">
                    <mxGeometry x="550" y="70" width="50" height="20" as="geometry"/>
                </mxCell>
                <mxCell id="M2R_YAmJUU3BRE1aYa_X-3" value="Mount Type" style="text;html=1;strokeColor=none;fillColor=none;align=center;verticalAlign=middle;whiteSpace=wrap;rounded=0;fontSize=18;fontStyle=1" vertex="1" parent="LirIfCl32TO5lYSVs2zt-1">
                    <mxGeometry x="535" y="20" width="80" height="30" as="geometry"/>
                </mxCell>
                <mxCell id="M2R_YAmJUU3BRE1aYa_X-4" value="volume" style="rounded=0;whiteSpace=wrap;html=1;strokeColor=#82b366;fontSize=21;align=left;fillColor=#d5e8d4;" vertex="1" parent="LirIfCl32TO5lYSVs2zt-1">
                    <mxGeometry x="550" y="105" width="80" height="20" as="geometry"/>
                </mxCell>
            </root>
        </mxGraphModel>
    </diagram>
    <diagram id="GlZ0INr8MOk2siQkvOUw" name="docker_volumes_command">
        <mxGraphModel dx="654" dy="391" grid="1" gridSize="10" guides="1" tooltips="1" connect="1" arrows="1" fold="1" page="1" pageScale="1" pageWidth="827" pageHeight="1169" math="0" shadow="0">
            <root>
                <mxCell id="pRJPaqnPAb04E5XvACH9-0"/>
                <mxCell id="pRJPaqnPAb04E5XvACH9-1" parent="pRJPaqnPAb04E5XvACH9-0"/>
                <mxCell id="M1x_r_10BfOxJKpJMZ-N-0" value="docker run -p 3000:3000" style="rounded=1;whiteSpace=wrap;html=1;arcSize=17;" vertex="1" parent="pRJPaqnPAb04E5XvACH9-1">
                    <mxGeometry x="60" y="250" width="160" height="20" as="geometry"/>
                </mxCell>
                <mxCell id="M1x_r_10BfOxJKpJMZ-N-1" value="-v /app/node_modules" style="rounded=1;whiteSpace=wrap;html=1;arcSize=17;" vertex="1" parent="pRJPaqnPAb04E5XvACH9-1">
                    <mxGeometry x="222.5" y="250" width="137.5" height="20" as="geometry"/>
                </mxCell>
                <mxCell id="M1x_r_10BfOxJKpJMZ-N-3" value="-v $(pwd):/app" style="rounded=1;whiteSpace=wrap;html=1;arcSize=17;" vertex="1" parent="pRJPaqnPAb04E5XvACH9-1">
                    <mxGeometry x="363.25" y="250" width="96.5" height="20" as="geometry"/>
                </mxCell>
                <mxCell id="M1x_r_10BfOxJKpJMZ-N-4" value="&amp;lt;imageID&amp;gt;" style="rounded=1;whiteSpace=wrap;html=1;arcSize=17;" vertex="1" parent="pRJPaqnPAb04E5XvACH9-1">
                    <mxGeometry x="464" y="250" width="80" height="20" as="geometry"/>
                </mxCell>
                <mxCell id="M1x_r_10BfOxJKpJMZ-N-5" value="" style="verticalLabelPosition=bottom;shadow=0;dashed=0;align=center;html=1;verticalAlign=top;strokeWidth=1;shape=mxgraph.mockup.markup.curlyBrace;" vertex="1" parent="pRJPaqnPAb04E5XvACH9-1">
                    <mxGeometry x="60" y="228" width="159" height="20" as="geometry"/>
                </mxCell>
                <mxCell id="M1x_r_10BfOxJKpJMZ-N-6" value="docker run call" style="text;html=1;strokeColor=none;fillColor=none;align=center;verticalAlign=middle;whiteSpace=wrap;rounded=0;" vertex="1" parent="pRJPaqnPAb04E5XvACH9-1">
                    <mxGeometry x="90" y="198" width="88.25" height="30" as="geometry"/>
                </mxCell>
                <mxCell id="M1x_r_10BfOxJKpJMZ-N-7" value="" style="verticalLabelPosition=bottom;shadow=0;dashed=0;align=center;html=1;verticalAlign=top;strokeWidth=1;shape=mxgraph.mockup.markup.curlyBrace;rotation=-180;" vertex="1" parent="pRJPaqnPAb04E5XvACH9-1">
                    <mxGeometry x="225" y="272" width="132.5" height="20" as="geometry"/>
                </mxCell>
                <mxCell id="M1x_r_10BfOxJKpJMZ-N-8" value="Put a bookmark on the node_modules folder. Because we have it only in the container we want to persist that so that it doesn't get overwritten with the mapping in the next command" style="text;html=1;strokeColor=none;fillColor=none;align=center;verticalAlign=middle;whiteSpace=wrap;rounded=0;" vertex="1" parent="pRJPaqnPAb04E5XvACH9-1">
                    <mxGeometry x="230" y="292" width="120" height="138" as="geometry"/>
                </mxCell>
                <mxCell id="M1x_r_10BfOxJKpJMZ-N-11" value="" style="verticalLabelPosition=bottom;shadow=0;dashed=0;align=center;html=1;verticalAlign=top;strokeWidth=1;shape=mxgraph.mockup.markup.curlyBrace;rotation=0;" vertex="1" parent="pRJPaqnPAb04E5XvACH9-1">
                    <mxGeometry x="364.75" y="228" width="93.5" height="20" as="geometry"/>
                </mxCell>
                <mxCell id="M1x_r_10BfOxJKpJMZ-N-12" value="Map the present working directory $(pwd) and everyting inside of it to the Container Working directory" style="text;html=1;strokeColor=none;fillColor=none;align=center;verticalAlign=middle;whiteSpace=wrap;rounded=0;" vertex="1" parent="pRJPaqnPAb04E5XvACH9-1">
                    <mxGeometry x="353.75" y="150" width="115.5" height="70" as="geometry"/>
                </mxCell>
                <mxCell id="M1x_r_10BfOxJKpJMZ-N-13" value="" style="verticalLabelPosition=bottom;shadow=0;dashed=0;align=center;html=1;verticalAlign=top;strokeWidth=1;shape=mxgraph.mockup.markup.curlyBrace;rotation=-180;" vertex="1" parent="pRJPaqnPAb04E5XvACH9-1">
                    <mxGeometry x="464" y="272" width="80" height="20" as="geometry"/>
                </mxCell>
                <mxCell id="M1x_r_10BfOxJKpJMZ-N-14" value="ID of the Image" style="text;html=1;strokeColor=none;fillColor=none;align=center;verticalAlign=middle;whiteSpace=wrap;rounded=0;" vertex="1" parent="pRJPaqnPAb04E5XvACH9-1">
                    <mxGeometry x="439" y="292" width="130" height="30" as="geometry"/>
                </mxCell>
            </root>
        </mxGraphModel>
    </diagram>
    <diagram id="Ai7XzUPe5bcDp6t7hfhO" name="multi_step_docker_builds">
        <mxGraphModel dx="785" dy="470" grid="1" gridSize="10" guides="1" tooltips="1" connect="1" arrows="1" fold="1" page="1" pageScale="1" pageWidth="827" pageHeight="1169" math="0" shadow="0">
            <root>
                <mxCell id="6ZfEl1eTqT96-iYbXJiU-0"/>
                <mxCell id="6ZfEl1eTqT96-iYbXJiU-1" parent="6ZfEl1eTqT96-iYbXJiU-0"/>
                <mxCell id="wKsnlHwQI8A0laE14Ngf-7" style="edgeStyle=orthogonalEdgeStyle;rounded=0;orthogonalLoop=1;jettySize=auto;html=1;exitX=0.5;exitY=1;exitDx=0;exitDy=0;fontSize=21;align=right;" edge="1" parent="6ZfEl1eTqT96-iYbXJiU-1" source="wKsnlHwQI8A0laE14Ngf-0" target="wKsnlHwQI8A0laE14Ngf-4">
                    <mxGeometry relative="1" as="geometry"/>
                </mxCell>
                <mxCell id="wKsnlHwQI8A0laE14Ngf-0" value="Base Image node:alpine" style="rounded=1;whiteSpace=wrap;html=1;strokeColor=#000000;fontSize=18;align=left;" vertex="1" parent="6ZfEl1eTqT96-iYbXJiU-1">
                    <mxGeometry x="140" y="120" width="200" height="30" as="geometry"/>
                </mxCell>
                <mxCell id="wKsnlHwQI8A0laE14Ngf-2" value="Build Phase" style="text;html=1;strokeColor=none;fillColor=none;align=center;verticalAlign=middle;whiteSpace=wrap;rounded=0;fontSize=21;fontStyle=1" vertex="1" parent="6ZfEl1eTqT96-iYbXJiU-1">
                    <mxGeometry x="150" y="80" width="150" height="30" as="geometry"/>
                </mxCell>
                <mxCell id="wKsnlHwQI8A0laE14Ngf-3" value="Run Phase" style="text;html=1;strokeColor=none;fillColor=none;align=center;verticalAlign=middle;whiteSpace=wrap;rounded=0;fontSize=21;fontStyle=1" vertex="1" parent="6ZfEl1eTqT96-iYbXJiU-1">
                    <mxGeometry x="490" y="80" width="150" height="30" as="geometry"/>
                </mxCell>
                <mxCell id="wKsnlHwQI8A0laE14Ngf-9" style="edgeStyle=orthogonalEdgeStyle;rounded=0;orthogonalLoop=1;jettySize=auto;html=1;exitX=0.5;exitY=1;exitDx=0;exitDy=0;entryX=0.5;entryY=0;entryDx=0;entryDy=0;fontSize=21;align=right;" edge="1" parent="6ZfEl1eTqT96-iYbXJiU-1" source="wKsnlHwQI8A0laE14Ngf-4" target="wKsnlHwQI8A0laE14Ngf-5">
                    <mxGeometry relative="1" as="geometry"/>
                </mxCell>
                <mxCell id="wKsnlHwQI8A0laE14Ngf-4" value="Copy package.json file" style="rounded=1;whiteSpace=wrap;html=1;strokeColor=#000000;fontSize=18;align=left;" vertex="1" parent="6ZfEl1eTqT96-iYbXJiU-1">
                    <mxGeometry x="140" y="160" width="200" height="30" as="geometry"/>
                </mxCell>
                <mxCell id="wKsnlHwQI8A0laE14Ngf-10" style="edgeStyle=orthogonalEdgeStyle;rounded=0;orthogonalLoop=1;jettySize=auto;html=1;fontSize=21;align=right;" edge="1" parent="6ZfEl1eTqT96-iYbXJiU-1" source="wKsnlHwQI8A0laE14Ngf-5" target="wKsnlHwQI8A0laE14Ngf-6">
                    <mxGeometry relative="1" as="geometry"/>
                </mxCell>
                <mxCell id="wKsnlHwQI8A0laE14Ngf-5" value="Install the dependencies" style="rounded=1;whiteSpace=wrap;html=1;strokeColor=#000000;fontSize=18;align=left;" vertex="1" parent="6ZfEl1eTqT96-iYbXJiU-1">
                    <mxGeometry x="140" y="200" width="200" height="30" as="geometry"/>
                </mxCell>
                <mxCell id="wKsnlHwQI8A0laE14Ngf-6" value="Build the Application &quot;npm run build&quot;" style="rounded=1;whiteSpace=wrap;html=1;strokeColor=#000000;fontSize=18;align=left;" vertex="1" parent="6ZfEl1eTqT96-iYbXJiU-1">
                    <mxGeometry x="140" y="240" width="200" height="70" as="geometry"/>
                </mxCell>
                <mxCell id="wKsnlHwQI8A0laE14Ngf-13" style="edgeStyle=orthogonalEdgeStyle;rounded=0;orthogonalLoop=1;jettySize=auto;html=1;entryX=0.5;entryY=0;entryDx=0;entryDy=0;fontSize=21;align=right;" edge="1" parent="6ZfEl1eTqT96-iYbXJiU-1" source="wKsnlHwQI8A0laE14Ngf-11" target="wKsnlHwQI8A0laE14Ngf-12">
                    <mxGeometry relative="1" as="geometry"/>
                </mxCell>
                <mxCell id="wKsnlHwQI8A0laE14Ngf-11" value="Base Image nginx" style="rounded=1;whiteSpace=wrap;html=1;strokeColor=#000000;fontSize=18;align=left;" vertex="1" parent="6ZfEl1eTqT96-iYbXJiU-1">
                    <mxGeometry x="465" y="120" width="200" height="30" as="geometry"/>
                </mxCell>
                <mxCell id="wKsnlHwQI8A0laE14Ngf-16" style="edgeStyle=orthogonalEdgeStyle;rounded=0;orthogonalLoop=1;jettySize=auto;html=1;exitX=0.5;exitY=1;exitDx=0;exitDy=0;entryX=0.517;entryY=-0.049;entryDx=0;entryDy=0;entryPerimeter=0;fontSize=21;align=right;" edge="1" parent="6ZfEl1eTqT96-iYbXJiU-1" source="wKsnlHwQI8A0laE14Ngf-12" target="wKsnlHwQI8A0laE14Ngf-15">
                    <mxGeometry relative="1" as="geometry"/>
                </mxCell>
                <mxCell id="wKsnlHwQI8A0laE14Ngf-17" style="edgeStyle=orthogonalEdgeStyle;rounded=0;orthogonalLoop=1;jettySize=auto;html=1;entryX=1;entryY=0.75;entryDx=0;entryDy=0;fontSize=21;align=right;" edge="1" parent="6ZfEl1eTqT96-iYbXJiU-1" source="wKsnlHwQI8A0laE14Ngf-12" target="wKsnlHwQI8A0laE14Ngf-6">
                    <mxGeometry relative="1" as="geometry"/>
                </mxCell>
                <mxCell id="wKsnlHwQI8A0laE14Ngf-12" value="Copy the output of the build phase" style="rounded=1;whiteSpace=wrap;html=1;strokeColor=#000000;fontSize=18;align=left;" vertex="1" parent="6ZfEl1eTqT96-iYbXJiU-1">
                    <mxGeometry x="465" y="160" width="200" height="50" as="geometry"/>
                </mxCell>
                <mxCell id="wKsnlHwQI8A0laE14Ngf-15" value="Start nginx" style="rounded=1;whiteSpace=wrap;html=1;strokeColor=#000000;fontSize=18;align=left;" vertex="1" parent="6ZfEl1eTqT96-iYbXJiU-1">
                    <mxGeometry x="465" y="220" width="200" height="30" as="geometry"/>
                </mxCell>
            </root>
        </mxGraphModel>
    </diagram>
    <diagram id="bdIjQLyfp-vg7FsCuGb4" name="volume_types">
        <mxGraphModel dx="1374" dy="822" grid="1" gridSize="10" guides="1" tooltips="1" connect="1" arrows="1" fold="1" page="1" pageScale="1" pageWidth="827" pageHeight="1169" math="0" shadow="0">
            <root>
                <mxCell id="e3IrmXfoFoq5_-Rz7kR5-0"/>
                <mxCell id="e3IrmXfoFoq5_-Rz7kR5-1" parent="e3IrmXfoFoq5_-Rz7kR5-0"/>
                <mxCell id="e3IrmXfoFoq5_-Rz7kR5-4" value="" style="rounded=0;whiteSpace=wrap;html=1;strokeColor=#67AB9F;fontSize=21;align=left;fontStyle=1" vertex="1" parent="e3IrmXfoFoq5_-Rz7kR5-1">
                    <mxGeometry x="70" y="60" width="450" height="310" as="geometry"/>
                </mxCell>
                <mxCell id="e3IrmXfoFoq5_-Rz7kR5-10" style="edgeStyle=orthogonalEdgeStyle;rounded=0;orthogonalLoop=1;jettySize=auto;html=1;fontSize=21;align=right;" edge="1" parent="e3IrmXfoFoq5_-Rz7kR5-1" source="e3IrmXfoFoq5_-Rz7kR5-3" target="e3IrmXfoFoq5_-Rz7kR5-9">
                    <mxGeometry relative="1" as="geometry">
                        <Array as="points">
                            <mxPoint x="420" y="141"/>
                        </Array>
                    </mxGeometry>
                </mxCell>
                <mxCell id="e3IrmXfoFoq5_-Rz7kR5-14" value="tmpfs mount" style="edgeLabel;html=1;align=center;verticalAlign=middle;resizable=0;points=[];fontSize=21;fontColor=#67AB9F;" vertex="1" connectable="0" parent="e3IrmXfoFoq5_-Rz7kR5-10">
                    <mxGeometry x="-0.1102" y="4" relative="1" as="geometry">
                        <mxPoint as="offset"/>
                    </mxGeometry>
                </mxCell>
                <mxCell id="e3IrmXfoFoq5_-Rz7kR5-12" style="edgeStyle=orthogonalEdgeStyle;rounded=0;orthogonalLoop=1;jettySize=auto;html=1;exitX=0;exitY=0.5;exitDx=0;exitDy=0;entryX=0.095;entryY=0.014;entryDx=0;entryDy=0;entryPerimeter=0;fontSize=21;align=right;" edge="1" parent="e3IrmXfoFoq5_-Rz7kR5-1" source="e3IrmXfoFoq5_-Rz7kR5-3" target="e3IrmXfoFoq5_-Rz7kR5-6">
                    <mxGeometry relative="1" as="geometry"/>
                </mxCell>
                <mxCell id="e3IrmXfoFoq5_-Rz7kR5-13" value="Bind mounts" style="edgeLabel;html=1;align=center;verticalAlign=middle;resizable=0;points=[];fontSize=21;fontColor=#67AB9F;" vertex="1" connectable="0" parent="e3IrmXfoFoq5_-Rz7kR5-12">
                    <mxGeometry x="-0.252" y="2" relative="1" as="geometry">
                        <mxPoint as="offset"/>
                    </mxGeometry>
                </mxCell>
                <mxCell id="e3IrmXfoFoq5_-Rz7kR5-3" value="Container" style="rounded=1;whiteSpace=wrap;html=1;strokeColor=#67AB9F;fontSize=21;align=center;" vertex="1" parent="e3IrmXfoFoq5_-Rz7kR5-1">
                    <mxGeometry x="197" y="110.5" width="210" height="60" as="geometry"/>
                </mxCell>
                <mxCell id="e3IrmXfoFoq5_-Rz7kR5-2" value="" style="aspect=fixed;html=1;points=[];align=center;image;fontSize=12;image=img/lib/mscae/Docker.svg;strokeColor=#67AB9F;" vertex="1" parent="e3IrmXfoFoq5_-Rz7kR5-1">
                    <mxGeometry x="200" y="120" width="50" height="41" as="geometry"/>
                </mxCell>
                <mxCell id="e3IrmXfoFoq5_-Rz7kR5-5" value="&lt;b&gt;Docker Host&lt;/b&gt;" style="text;html=1;strokeColor=none;fillColor=none;align=center;verticalAlign=middle;whiteSpace=wrap;rounded=0;fontSize=21;" vertex="1" parent="e3IrmXfoFoq5_-Rz7kR5-1">
                    <mxGeometry x="80" y="70" width="130" height="30" as="geometry"/>
                </mxCell>
                <mxCell id="e3IrmXfoFoq5_-Rz7kR5-6" value="" style="rounded=1;whiteSpace=wrap;html=1;strokeColor=#67AB9F;fontSize=21;align=center;" vertex="1" parent="e3IrmXfoFoq5_-Rz7kR5-1">
                    <mxGeometry x="90" y="220" width="210" height="140" as="geometry"/>
                </mxCell>
                <mxCell id="e3IrmXfoFoq5_-Rz7kR5-7" value="filesystem" style="text;html=1;strokeColor=none;fillColor=none;align=center;verticalAlign=middle;whiteSpace=wrap;rounded=0;fontSize=21;" vertex="1" parent="e3IrmXfoFoq5_-Rz7kR5-1">
                    <mxGeometry x="175" y="240" width="40" height="20" as="geometry"/>
                </mxCell>
                <mxCell id="e3IrmXfoFoq5_-Rz7kR5-8" value="Docker area" style="rounded=0;whiteSpace=wrap;html=1;strokeColor=#67AB9F;fontSize=21;align=left;dashed=1;" vertex="1" parent="e3IrmXfoFoq5_-Rz7kR5-1">
                    <mxGeometry x="135" y="290" width="120" height="30" as="geometry"/>
                </mxCell>
                <mxCell id="e3IrmXfoFoq5_-Rz7kR5-9" value="Memory" style="rounded=1;whiteSpace=wrap;html=1;strokeColor=#67AB9F;fontSize=21;align=center;" vertex="1" parent="e3IrmXfoFoq5_-Rz7kR5-1">
                    <mxGeometry x="350" y="250" width="140" height="50" as="geometry"/>
                </mxCell>
                <mxCell id="e3IrmXfoFoq5_-Rz7kR5-11" style="edgeStyle=orthogonalEdgeStyle;rounded=0;orthogonalLoop=1;jettySize=auto;html=1;entryX=1;entryY=0.5;entryDx=0;entryDy=0;fontSize=21;align=right;" edge="1" parent="e3IrmXfoFoq5_-Rz7kR5-1" source="e3IrmXfoFoq5_-Rz7kR5-3" target="e3IrmXfoFoq5_-Rz7kR5-8">
                    <mxGeometry relative="1" as="geometry">
                        <Array as="points">
                            <mxPoint x="330" y="305"/>
                        </Array>
                    </mxGeometry>
                </mxCell>
                <mxCell id="e3IrmXfoFoq5_-Rz7kR5-15" value="volume" style="edgeLabel;html=1;align=center;verticalAlign=middle;resizable=0;points=[];fontSize=21;fontColor=#67AB9F;" vertex="1" connectable="0" parent="e3IrmXfoFoq5_-Rz7kR5-11">
                    <mxGeometry x="-0.5752" y="-3" relative="1" as="geometry">
                        <mxPoint y="1" as="offset"/>
                    </mxGeometry>
                </mxCell>
            </root>
        </mxGraphModel>
    </diagram>
    <diagram id="Vr8v1ArHSKr2Dgs_Agi7" name="Deployment_Setup">
        <mxGraphModel dx="677" dy="391" grid="1" gridSize="10" guides="1" tooltips="1" connect="1" arrows="1" fold="1" page="1" pageScale="1" pageWidth="827" pageHeight="1169" math="0" shadow="0">
            <root>
                <mxCell id="TvI7jjxrdWnAn_IX-BsY-0"/>
                <mxCell id="TvI7jjxrdWnAn_IX-BsY-1" parent="TvI7jjxrdWnAn_IX-BsY-0"/>
                <mxCell id="TvI7jjxrdWnAn_IX-BsY-4" value="" style="rounded=0;whiteSpace=wrap;html=1;fillColor=#f5f5f5;strokeColor=#666666;fontColor=#333333;" vertex="1" parent="TvI7jjxrdWnAn_IX-BsY-1">
                    <mxGeometry x="90" y="110" width="300" height="100" as="geometry"/>
                </mxCell>
                <mxCell id="TvI7jjxrdWnAn_IX-BsY-3" value="" style="dashed=0;outlineConnect=0;html=1;align=center;labelPosition=center;verticalLabelPosition=bottom;verticalAlign=top;shape=mxgraph.weblogos.github" vertex="1" parent="TvI7jjxrdWnAn_IX-BsY-1">
                    <mxGeometry x="80" y="92" width="50" height="50" as="geometry"/>
                </mxCell>
                <mxCell id="TvI7jjxrdWnAn_IX-BsY-17" value="Pull" style="edgeStyle=orthogonalEdgeStyle;rounded=0;orthogonalLoop=1;jettySize=auto;html=1;exitX=0.5;exitY=1;exitDx=0;exitDy=0;entryX=0.5;entryY=0;entryDx=0;entryDy=0;" edge="1" parent="TvI7jjxrdWnAn_IX-BsY-1" source="TvI7jjxrdWnAn_IX-BsY-12" target="TvI7jjxrdWnAn_IX-BsY-13">
                    <mxGeometry relative="1" as="geometry"/>
                </mxCell>
                <mxCell id="TvI7jjxrdWnAn_IX-BsY-12" value="Feature Branch" style="rounded=0;whiteSpace=wrap;html=1;" vertex="1" parent="TvI7jjxrdWnAn_IX-BsY-1">
                    <mxGeometry x="140" y="132" width="210" height="20" as="geometry"/>
                </mxCell>
                <mxCell id="TvI7jjxrdWnAn_IX-BsY-19" style="edgeStyle=orthogonalEdgeStyle;rounded=0;orthogonalLoop=1;jettySize=auto;html=1;entryX=0;entryY=0.5;entryDx=0;entryDy=0;" edge="1" parent="TvI7jjxrdWnAn_IX-BsY-1" source="TvI7jjxrdWnAn_IX-BsY-13" target="TvI7jjxrdWnAn_IX-BsY-18">
                    <mxGeometry relative="1" as="geometry"/>
                </mxCell>
                <mxCell id="TvI7jjxrdWnAn_IX-BsY-13" value="Master Branch" style="rounded=0;whiteSpace=wrap;html=1;" vertex="1" parent="TvI7jjxrdWnAn_IX-BsY-1">
                    <mxGeometry x="140" y="177" width="210" height="20" as="geometry"/>
                </mxCell>
                <mxCell id="TvI7jjxrdWnAn_IX-BsY-15" style="edgeStyle=orthogonalEdgeStyle;rounded=0;orthogonalLoop=1;jettySize=auto;html=1;" edge="1" parent="TvI7jjxrdWnAn_IX-BsY-1" source="TvI7jjxrdWnAn_IX-BsY-14" target="TvI7jjxrdWnAn_IX-BsY-12">
                    <mxGeometry relative="1" as="geometry"/>
                </mxCell>
                <mxCell id="TvI7jjxrdWnAn_IX-BsY-16" value="Push" style="edgeLabel;html=1;align=center;verticalAlign=middle;resizable=0;points=[];" vertex="1" connectable="0" parent="TvI7jjxrdWnAn_IX-BsY-15">
                    <mxGeometry x="-0.2173" y="2" relative="1" as="geometry">
                        <mxPoint as="offset"/>
                    </mxGeometry>
                </mxCell>
                <mxCell id="TvI7jjxrdWnAn_IX-BsY-14" value="" style="pointerEvents=1;shadow=0;dashed=0;html=1;strokeColor=none;fillColor=#505050;labelPosition=center;verticalLabelPosition=bottom;verticalAlign=top;outlineConnect=0;align=center;shape=mxgraph.office.devices.laptop;" vertex="1" parent="TvI7jjxrdWnAn_IX-BsY-1">
                    <mxGeometry x="216" y="20" width="58" height="34" as="geometry"/>
                </mxCell>
                <mxCell id="TvI7jjxrdWnAn_IX-BsY-21" style="edgeStyle=orthogonalEdgeStyle;rounded=0;orthogonalLoop=1;jettySize=auto;html=1;entryX=0;entryY=0.5;entryDx=0;entryDy=0;" edge="1" parent="TvI7jjxrdWnAn_IX-BsY-1" source="TvI7jjxrdWnAn_IX-BsY-18" target="TvI7jjxrdWnAn_IX-BsY-20">
                    <mxGeometry relative="1" as="geometry"/>
                </mxCell>
                <mxCell id="TvI7jjxrdWnAn_IX-BsY-18" value="Travis CI" style="rounded=0;whiteSpace=wrap;html=1;fillColor=#dae8fc;strokeColor=#6c8ebf;" vertex="1" parent="TvI7jjxrdWnAn_IX-BsY-1">
                    <mxGeometry x="414" y="176" width="120" height="22" as="geometry"/>
                </mxCell>
                <mxCell id="TvI7jjxrdWnAn_IX-BsY-20" value="AWS&amp;nbsp;" style="rounded=0;whiteSpace=wrap;html=1;fillColor=#ffe6cc;strokeColor=#d79b00;" vertex="1" parent="TvI7jjxrdWnAn_IX-BsY-1">
                    <mxGeometry x="560" y="176" width="50" height="22" as="geometry"/>
                </mxCell>
            </root>
        </mxGraphModel>
    </diagram>
    <diagram id="O6A8CiUrH6Jm8m6X_DZ4" name="AWS_Environment">
        <mxGraphModel dx="1422" dy="822" grid="1" gridSize="10" guides="1" tooltips="1" connect="1" arrows="1" fold="1" page="1" pageScale="1" pageWidth="827" pageHeight="1169" math="0" shadow="0">
            <root>
                <mxCell id="8pTppJ1SWUtRktgtya2P-0"/>
                <mxCell id="8pTppJ1SWUtRktgtya2P-1" parent="8pTppJ1SWUtRktgtya2P-0"/>
                <mxCell id="8pTppJ1SWUtRktgtya2P-3" value="" style="rounded=0;whiteSpace=wrap;html=1;" vertex="1" parent="8pTppJ1SWUtRktgtya2P-1">
                    <mxGeometry x="480" y="150" width="300" height="460" as="geometry"/>
                </mxCell>
                <mxCell id="8pTppJ1SWUtRktgtya2P-2" value="" style="outlineConnect=0;dashed=0;verticalLabelPosition=bottom;verticalAlign=top;align=center;html=1;shape=mxgraph.aws3.elastic_beanstalk;fillColor=#F58534;gradientColor=none;" vertex="1" parent="8pTppJ1SWUtRktgtya2P-1">
                    <mxGeometry x="470" y="100" width="50" height="60" as="geometry"/>
                </mxCell>
                <mxCell id="lDrlaD-sjp7wtEWnbc47-18" style="edgeStyle=orthogonalEdgeStyle;rounded=0;orthogonalLoop=1;jettySize=auto;html=1;entryX=0;entryY=0.5;entryDx=0;entryDy=0;fontSize=18;" edge="1" parent="8pTppJ1SWUtRktgtya2P-1" source="8pTppJ1SWUtRktgtya2P-4" target="8pTppJ1SWUtRktgtya2P-5">
                    <mxGeometry relative="1" as="geometry"/>
                </mxCell>
                <mxCell id="lDrlaD-sjp7wtEWnbc47-19" style="edgeStyle=orthogonalEdgeStyle;rounded=0;orthogonalLoop=1;jettySize=auto;html=1;entryX=0;entryY=0.5;entryDx=0;entryDy=0;fontSize=18;" edge="1" parent="8pTppJ1SWUtRktgtya2P-1" source="8pTppJ1SWUtRktgtya2P-4" target="lDrlaD-sjp7wtEWnbc47-4">
                    <mxGeometry relative="1" as="geometry"/>
                </mxCell>
                <mxCell id="lDrlaD-sjp7wtEWnbc47-20" style="edgeStyle=orthogonalEdgeStyle;rounded=0;orthogonalLoop=1;jettySize=auto;html=1;fontSize=18;" edge="1" parent="8pTppJ1SWUtRktgtya2P-1" source="8pTppJ1SWUtRktgtya2P-4" target="lDrlaD-sjp7wtEWnbc47-10">
                    <mxGeometry relative="1" as="geometry"/>
                </mxCell>
                <mxCell id="8pTppJ1SWUtRktgtya2P-4" value="Load Balancer" style="rounded=1;whiteSpace=wrap;html=1;fillColor=#f8cecc;strokeColor=#b85450;" vertex="1" parent="8pTppJ1SWUtRktgtya2P-1">
                    <mxGeometry x="491" y="165" width="49" height="430" as="geometry"/>
                </mxCell>
                <mxCell id="8pTppJ1SWUtRktgtya2P-10" value="AWS Environment&lt;br&gt;Elastic Beanstalk" style="text;html=1;strokeColor=none;fillColor=none;align=center;verticalAlign=middle;whiteSpace=wrap;rounded=0;fontStyle=1;fontSize=18;" vertex="1" parent="8pTppJ1SWUtRktgtya2P-1">
                    <mxGeometry x="553" y="120" width="161" height="20" as="geometry"/>
                </mxCell>
                <mxCell id="8pTppJ1SWUtRktgtya2P-15" style="edgeStyle=orthogonalEdgeStyle;rounded=0;orthogonalLoop=1;jettySize=auto;html=1;entryX=0;entryY=0.5;entryDx=0;entryDy=0;fontSize=18;" edge="1" parent="8pTppJ1SWUtRktgtya2P-1" source="8pTppJ1SWUtRktgtya2P-12" target="8pTppJ1SWUtRktgtya2P-4">
                    <mxGeometry relative="1" as="geometry"/>
                </mxCell>
                <mxCell id="8pTppJ1SWUtRktgtya2P-12" value="" style="strokeWidth=1;shadow=0;dashed=0;align=center;html=1;shape=mxgraph.mockup.containers.browserWindow;rSize=0;strokeColor=#666666;strokeColor2=#008cff;strokeColor3=#c4c4c4;mainText=,;recursiveResize=0;fontSize=18;" vertex="1" parent="8pTppJ1SWUtRktgtya2P-1">
                    <mxGeometry x="40" y="300" width="400" height="160" as="geometry"/>
                </mxCell>
                <mxCell id="8pTppJ1SWUtRktgtya2P-13" value="Page 1" style="strokeWidth=1;shadow=0;dashed=0;align=center;html=1;shape=mxgraph.mockup.containers.anchor;fontSize=17;fontColor=#666666;align=left;" vertex="1" parent="8pTppJ1SWUtRktgtya2P-12">
                    <mxGeometry x="60" y="12" width="110" height="26" as="geometry"/>
                </mxCell>
                <mxCell id="8pTppJ1SWUtRktgtya2P-14" value="https://docker-react.com" style="strokeWidth=1;shadow=0;dashed=0;align=center;html=1;shape=mxgraph.mockup.containers.anchor;rSize=0;fontSize=17;fontColor=#666666;align=left;" vertex="1" parent="8pTppJ1SWUtRktgtya2P-12">
                    <mxGeometry x="130" y="60" width="250" height="26" as="geometry"/>
                </mxCell>
                <mxCell id="lDrlaD-sjp7wtEWnbc47-2" value="" style="group" vertex="1" connectable="0" parent="8pTppJ1SWUtRktgtya2P-1">
                    <mxGeometry x="630" y="160" width="140" height="140" as="geometry"/>
                </mxCell>
                <mxCell id="8pTppJ1SWUtRktgtya2P-5" value="" style="rounded=1;whiteSpace=wrap;html=1;fillColor=#d5e8d4;strokeColor=#82b366;" vertex="1" parent="lDrlaD-sjp7wtEWnbc47-2">
                    <mxGeometry width="140" height="140" as="geometry"/>
                </mxCell>
                <mxCell id="8pTppJ1SWUtRktgtya2P-6" value="" style="rounded=1;whiteSpace=wrap;html=1;fillColor=#dae8fc;strokeColor=#6c8ebf;" vertex="1" parent="lDrlaD-sjp7wtEWnbc47-2">
                    <mxGeometry x="10" y="20" width="120" height="110" as="geometry"/>
                </mxCell>
                <mxCell id="8pTppJ1SWUtRktgtya2P-7" value="App" style="rounded=1;whiteSpace=wrap;html=1;fillColor=#ffe6cc;strokeColor=#d79b00;" vertex="1" parent="lDrlaD-sjp7wtEWnbc47-2">
                    <mxGeometry x="30" y="60" width="80" height="60" as="geometry"/>
                </mxCell>
                <mxCell id="8pTppJ1SWUtRktgtya2P-8" value="VM Running Docker" style="text;html=1;strokeColor=none;fillColor=none;align=center;verticalAlign=middle;whiteSpace=wrap;rounded=0;" vertex="1" parent="lDrlaD-sjp7wtEWnbc47-2">
                    <mxGeometry x="10" width="120" height="20" as="geometry"/>
                </mxCell>
                <mxCell id="8pTppJ1SWUtRktgtya2P-9" value="Docker Container" style="text;html=1;strokeColor=none;fillColor=none;align=center;verticalAlign=middle;whiteSpace=wrap;rounded=0;" vertex="1" parent="lDrlaD-sjp7wtEWnbc47-2">
                    <mxGeometry x="10" y="34" width="120" height="20" as="geometry"/>
                </mxCell>
                <mxCell id="lDrlaD-sjp7wtEWnbc47-3" value="" style="group" vertex="1" connectable="0" parent="8pTppJ1SWUtRktgtya2P-1">
                    <mxGeometry x="630" y="310" width="140" height="140" as="geometry"/>
                </mxCell>
                <mxCell id="lDrlaD-sjp7wtEWnbc47-4" value="" style="rounded=1;whiteSpace=wrap;html=1;fillColor=#d5e8d4;strokeColor=#82b366;" vertex="1" parent="lDrlaD-sjp7wtEWnbc47-3">
                    <mxGeometry width="140" height="140" as="geometry"/>
                </mxCell>
                <mxCell id="lDrlaD-sjp7wtEWnbc47-5" value="" style="rounded=1;whiteSpace=wrap;html=1;fillColor=#dae8fc;strokeColor=#6c8ebf;" vertex="1" parent="lDrlaD-sjp7wtEWnbc47-3">
                    <mxGeometry x="10" y="20" width="120" height="110" as="geometry"/>
                </mxCell>
                <mxCell id="lDrlaD-sjp7wtEWnbc47-6" value="App" style="rounded=1;whiteSpace=wrap;html=1;fillColor=#ffe6cc;strokeColor=#d79b00;" vertex="1" parent="lDrlaD-sjp7wtEWnbc47-3">
                    <mxGeometry x="30" y="60" width="80" height="60" as="geometry"/>
                </mxCell>
                <mxCell id="lDrlaD-sjp7wtEWnbc47-7" value="VM Running Docker" style="text;html=1;strokeColor=none;fillColor=none;align=center;verticalAlign=middle;whiteSpace=wrap;rounded=0;" vertex="1" parent="lDrlaD-sjp7wtEWnbc47-3">
                    <mxGeometry x="10" width="120" height="20" as="geometry"/>
                </mxCell>
                <mxCell id="lDrlaD-sjp7wtEWnbc47-8" value="Docker Container" style="text;html=1;strokeColor=none;fillColor=none;align=center;verticalAlign=middle;whiteSpace=wrap;rounded=0;" vertex="1" parent="lDrlaD-sjp7wtEWnbc47-3">
                    <mxGeometry x="10" y="34" width="120" height="20" as="geometry"/>
                </mxCell>
                <mxCell id="lDrlaD-sjp7wtEWnbc47-9" value="" style="group" vertex="1" connectable="0" parent="8pTppJ1SWUtRktgtya2P-1">
                    <mxGeometry x="630" y="460" width="140" height="140" as="geometry"/>
                </mxCell>
                <mxCell id="lDrlaD-sjp7wtEWnbc47-10" value="" style="rounded=1;whiteSpace=wrap;html=1;fillColor=#d5e8d4;strokeColor=#82b366;" vertex="1" parent="lDrlaD-sjp7wtEWnbc47-9">
                    <mxGeometry width="140" height="140" as="geometry"/>
                </mxCell>
                <mxCell id="lDrlaD-sjp7wtEWnbc47-11" value="" style="rounded=1;whiteSpace=wrap;html=1;fillColor=#dae8fc;strokeColor=#6c8ebf;" vertex="1" parent="lDrlaD-sjp7wtEWnbc47-9">
                    <mxGeometry x="10" y="20" width="120" height="110" as="geometry"/>
                </mxCell>
                <mxCell id="lDrlaD-sjp7wtEWnbc47-12" value="App" style="rounded=1;whiteSpace=wrap;html=1;fillColor=#ffe6cc;strokeColor=#d79b00;" vertex="1" parent="lDrlaD-sjp7wtEWnbc47-9">
                    <mxGeometry x="30" y="60" width="80" height="60" as="geometry"/>
                </mxCell>
                <mxCell id="lDrlaD-sjp7wtEWnbc47-13" value="VM Running Docker" style="text;html=1;strokeColor=none;fillColor=none;align=center;verticalAlign=middle;whiteSpace=wrap;rounded=0;" vertex="1" parent="lDrlaD-sjp7wtEWnbc47-9">
                    <mxGeometry x="10" width="120" height="20" as="geometry"/>
                </mxCell>
                <mxCell id="lDrlaD-sjp7wtEWnbc47-14" value="Docker Container" style="text;html=1;strokeColor=none;fillColor=none;align=center;verticalAlign=middle;whiteSpace=wrap;rounded=0;" vertex="1" parent="lDrlaD-sjp7wtEWnbc47-9">
                    <mxGeometry x="10" y="34" width="120" height="20" as="geometry"/>
                </mxCell>
            </root>
        </mxGraphModel>
    </diagram>
    <diagram id="qB1x2wzjpvwlaFTgD13H" name="Kubernetes">
        <mxGraphModel dx="820" dy="792" grid="1" gridSize="10" guides="1" tooltips="1" connect="1" arrows="1" fold="1" page="1" pageScale="1" pageWidth="827" pageHeight="1169" math="0" shadow="0">
            <root>
                <mxCell id="LOpW6OKaJElqX0vM9vAW-0"/>
                <mxCell id="LOpW6OKaJElqX0vM9vAW-1" parent="LOpW6OKaJElqX0vM9vAW-0"/>
                <mxCell id="LOpW6OKaJElqX0vM9vAW-12" value="" style="ellipse;whiteSpace=wrap;html=1;fillColor=#008a00;strokeColor=#005700;fontColor=#ffffff;" vertex="1" parent="LOpW6OKaJElqX0vM9vAW-1">
                    <mxGeometry x="50" y="160" width="520" height="220" as="geometry"/>
                </mxCell>
                <mxCell id="LOpW6OKaJElqX0vM9vAW-2" value="Node (Worker)" style="rounded=0;whiteSpace=wrap;html=1;fillColor=#1ba1e2;strokeColor=#006EAF;fontColor=#ffffff;" vertex="1" parent="LOpW6OKaJElqX0vM9vAW-1">
                    <mxGeometry x="110" y="200" width="120" height="60" as="geometry"/>
                </mxCell>
                <mxCell id="LOpW6OKaJElqX0vM9vAW-3" value="Node (Worker)" style="rounded=0;whiteSpace=wrap;html=1;fillColor=#1ba1e2;strokeColor=#006EAF;fontColor=#ffffff;" vertex="1" parent="LOpW6OKaJElqX0vM9vAW-1">
                    <mxGeometry x="250" y="200" width="120" height="60" as="geometry"/>
                </mxCell>
                <mxCell id="LOpW6OKaJElqX0vM9vAW-4" value="Node (Worker)" style="rounded=0;whiteSpace=wrap;html=1;fillColor=#1ba1e2;strokeColor=#006EAF;fontColor=#ffffff;" vertex="1" parent="LOpW6OKaJElqX0vM9vAW-1">
                    <mxGeometry x="390" y="200" width="120" height="60" as="geometry"/>
                </mxCell>
                <mxCell id="LOpW6OKaJElqX0vM9vAW-7" style="edgeStyle=orthogonalEdgeStyle;rounded=0;orthogonalLoop=1;jettySize=auto;html=1;" edge="1" parent="LOpW6OKaJElqX0vM9vAW-1" target="LOpW6OKaJElqX0vM9vAW-4">
                    <mxGeometry relative="1" as="geometry">
                        <mxPoint x="310" y="300" as="sourcePoint"/>
                        <Array as="points">
                            <mxPoint x="310" y="280"/>
                            <mxPoint x="450" y="280"/>
                        </Array>
                    </mxGeometry>
                </mxCell>
                <mxCell id="LOpW6OKaJElqX0vM9vAW-8" style="edgeStyle=orthogonalEdgeStyle;rounded=0;orthogonalLoop=1;jettySize=auto;html=1;" edge="1" parent="LOpW6OKaJElqX0vM9vAW-1" source="LOpW6OKaJElqX0vM9vAW-5" target="LOpW6OKaJElqX0vM9vAW-3">
                    <mxGeometry relative="1" as="geometry"/>
                </mxCell>
                <mxCell id="LOpW6OKaJElqX0vM9vAW-5" value="Master" style="rounded=0;whiteSpace=wrap;html=1;fillColor=#d80073;strokeColor=#A50040;fontColor=#ffffff;" vertex="1" parent="LOpW6OKaJElqX0vM9vAW-1">
                    <mxGeometry x="250" y="300" width="120" height="60" as="geometry"/>
                </mxCell>
                <mxCell id="LOpW6OKaJElqX0vM9vAW-9" value="&lt;font style=&quot;font-size: 50px&quot;&gt;{&lt;/font&gt;" style="text;html=1;strokeColor=none;fillColor=none;align=center;verticalAlign=middle;whiteSpace=wrap;rounded=0;" vertex="1" parent="LOpW6OKaJElqX0vM9vAW-1">
                    <mxGeometry x="210" y="300" width="40" height="50" as="geometry"/>
                </mxCell>
                <mxCell id="LOpW6OKaJElqX0vM9vAW-10" style="edgeStyle=orthogonalEdgeStyle;rounded=0;orthogonalLoop=1;jettySize=auto;html=1;exitX=0.5;exitY=0;exitDx=0;exitDy=0;entryX=0.5;entryY=1;entryDx=0;entryDy=0;" edge="1" parent="LOpW6OKaJElqX0vM9vAW-1" source="LOpW6OKaJElqX0vM9vAW-5" target="LOpW6OKaJElqX0vM9vAW-2">
                    <mxGeometry relative="1" as="geometry">
                        <mxPoint x="250" y="330" as="sourcePoint"/>
                        <mxPoint x="170" y="260" as="targetPoint"/>
                    </mxGeometry>
                </mxCell>
                <mxCell id="LOpW6OKaJElqX0vM9vAW-11" value="Controls what the Worker do" style="text;html=1;strokeColor=none;fillColor=none;align=center;verticalAlign=middle;whiteSpace=wrap;rounded=0;" vertex="1" parent="LOpW6OKaJElqX0vM9vAW-1">
                    <mxGeometry x="130" y="320" width="80" height="20" as="geometry"/>
                </mxCell>
                <mxCell id="LOpW6OKaJElqX0vM9vAW-13" value="K8s-Cluster" style="text;html=1;strokeColor=none;fillColor=none;align=center;verticalAlign=middle;whiteSpace=wrap;rounded=0;fontSize=29;fontStyle=1" vertex="1" parent="LOpW6OKaJElqX0vM9vAW-1">
                    <mxGeometry x="405" y="302" width="40" height="20" as="geometry"/>
                </mxCell>
                <mxCell id="LOpW6OKaJElqX0vM9vAW-14" value="&lt;font style=&quot;font-size: 50px&quot;&gt;{&lt;/font&gt;" style="text;html=1;strokeColor=none;fillColor=none;align=center;verticalAlign=middle;whiteSpace=wrap;rounded=0;rotation=-180;" vertex="1" parent="LOpW6OKaJElqX0vM9vAW-1">
                    <mxGeometry x="530" y="210" width="40" height="50" as="geometry"/>
                </mxCell>
                <mxCell id="LOpW6OKaJElqX0vM9vAW-15" value="VM or Physical Device" style="text;html=1;strokeColor=none;fillColor=none;align=center;verticalAlign=middle;whiteSpace=wrap;rounded=0;" vertex="1" parent="LOpW6OKaJElqX0vM9vAW-1">
                    <mxGeometry x="580" y="210" width="80" height="50" as="geometry"/>
                </mxCell>
                <mxCell id="LOpW6OKaJElqX0vM9vAW-17" style="edgeStyle=orthogonalEdgeStyle;rounded=0;orthogonalLoop=1;jettySize=auto;html=1;fontSize=29;" edge="1" parent="LOpW6OKaJElqX0vM9vAW-1" source="LOpW6OKaJElqX0vM9vAW-16" target="LOpW6OKaJElqX0vM9vAW-3">
                    <mxGeometry relative="1" as="geometry"/>
                </mxCell>
                <mxCell id="LOpW6OKaJElqX0vM9vAW-18" style="edgeStyle=orthogonalEdgeStyle;rounded=0;orthogonalLoop=1;jettySize=auto;html=1;entryX=0.5;entryY=0;entryDx=0;entryDy=0;fontSize=29;" edge="1" parent="LOpW6OKaJElqX0vM9vAW-1" source="LOpW6OKaJElqX0vM9vAW-16" target="LOpW6OKaJElqX0vM9vAW-2">
                    <mxGeometry relative="1" as="geometry">
                        <Array as="points">
                            <mxPoint x="310" y="160"/>
                            <mxPoint x="170" y="160"/>
                        </Array>
                    </mxGeometry>
                </mxCell>
                <mxCell id="LOpW6OKaJElqX0vM9vAW-19" style="edgeStyle=orthogonalEdgeStyle;rounded=0;orthogonalLoop=1;jettySize=auto;html=1;fontSize=29;" edge="1" parent="LOpW6OKaJElqX0vM9vAW-1" source="LOpW6OKaJElqX0vM9vAW-16" target="LOpW6OKaJElqX0vM9vAW-4">
                    <mxGeometry relative="1" as="geometry">
                        <Array as="points">
                            <mxPoint x="310" y="160"/>
                            <mxPoint x="450" y="160"/>
                        </Array>
                    </mxGeometry>
                </mxCell>
                <mxCell id="LOpW6OKaJElqX0vM9vAW-16" value="Load Balancer" style="rounded=0;whiteSpace=wrap;html=1;fillColor=#6a00ff;strokeColor=#3700CC;fontColor=#ffffff;" vertex="1" parent="LOpW6OKaJElqX0vM9vAW-1">
                    <mxGeometry x="250" y="90" width="120" height="40" as="geometry"/>
                </mxCell>
                <mxCell id="LOpW6OKaJElqX0vM9vAW-21" style="edgeStyle=orthogonalEdgeStyle;rounded=0;orthogonalLoop=1;jettySize=auto;html=1;fontSize=29;" edge="1" parent="LOpW6OKaJElqX0vM9vAW-1" source="LOpW6OKaJElqX0vM9vAW-20" target="LOpW6OKaJElqX0vM9vAW-16">
                    <mxGeometry relative="1" as="geometry"/>
                </mxCell>
                <mxCell id="LOpW6OKaJElqX0vM9vAW-20" value="Request" style="rounded=0;whiteSpace=wrap;html=1;fillColor=#a20025;strokeColor=#6F0000;fontColor=#ffffff;" vertex="1" parent="LOpW6OKaJElqX0vM9vAW-1">
                    <mxGeometry x="250" y="30" width="120" height="40" as="geometry"/>
                </mxCell>
            </root>
        </mxGraphModel>
    </diagram>
</mxfile>